<svg xmlns="http://www.w3.org/2000/svg" version="1.1" xmlns:xlink="http://www.w3.org/1999/xlink" xmlns:svgjs="http://svgjs.dev/svgjs" width="1440" height="560" preserveAspectRatio="none" viewBox="0 0 1440 560"><g mask="url(&quot;#SvgjsMask1010&quot;)" fill="none"><path d="M1464 560L0 560 L0 357.47Q11.24 296.72, 72 307.96Q114.98 278.94, 144 321.91Q244.63 302.54, 264 403.16Q278.06 345.22, 336 359.27Q363.74 315, 408 342.74Q422.38 285.13, 480 299.51Q509.33 256.84, 552 286.17Q648.61 262.77, 672 359.38Q677.21 292.59, 744 297.8Q810.34 244.14, 864 310.48Q945.8 272.28, 984 354.09Q985.76 283.85, 1056 285.6Q1115.96 273.56, 1128 333.52Q1206.01 291.52, 1248 369.53Q1304.37 353.89, 1320 410.26Q1342.2 360.46, 1392 382.66Q1397.85 316.51, 1464 322.36z" fill="rgba(213, 128, 255, 0.64)"></path><path d="M1464 560L0 560 L0 401.81Q71.81 353.62, 120 425.43Q176.72 410.15, 192 466.87Q233.25 436.12, 264 477.36Q285.85 379.21, 384 401.06Q406.16 351.22, 456 373.38Q522.54 319.92, 576 386.46Q676.01 366.48, 696 466.49Q720.76 419.25, 768 444.02Q777.98 382, 840 391.97Q913.54 345.51, 960 419.06Q1032.95 372.01, 1080 444.96Q1146.17 391.13, 1200 457.3Q1246.59 431.88, 1272 478.47Q1314.2 400.68, 1392 442.88Q1405.84 384.72, 1464 398.55z" fill="rgba(102, 153, 255, 0.69)"></path><path d="M1488 560L0 560 L0 541.68Q4.1 473.77, 72 477.87Q122.99 456.86, 144 507.85Q171.54 463.39, 216 490.93Q242.71 445.64, 288 472.35Q343.48 455.83, 360 511.3Q411.37 442.67, 480 494.04Q539.13 481.17, 552 540.31Q631.36 499.67, 672 579.03Q737.53 524.56, 792 590.09Q812.21 538.3, 864 558.5Q873.92 496.42, 936 506.35Q983.03 433.38, 1056 480.42Q1137.33 441.75, 1176 523.07Q1204.71 479.78, 1248 508.49Q1344.81 485.3, 1368 582.1Q1410.29 504.38, 1488 546.67z" fill="rgba(255, 255, 255, 1)"></path></g><defs><mask id="SvgjsMask1010"><rect width="1440" height="560" fill="#ffffff"></rect></mask></defs></svg>